<svg xmlns="http://www.w3.org/2000/svg" viewBox="0 0 64 64" role="img" aria-label="USA Missionaries"><rect width="64" height="64" rx="9" fill="#FFFFFF"/><rect x="4" y="4" width="56" height="56" rx="6" fill="#0D0D0D"/><rect x="17" y="30.9" width="30" height="2.3" fill="#C2A14E"/><rect x="16.45" y="8.7" width="4.004" height="4.004" fill="#FFFFFF"/><rect x="25.55" y="8.7" width="4.004" height="4.004" fill="#FFFFFF"/><rect x="16.45" y="13.25" width="4.004" height="4.004" fill="#FFFFFF"/><rect x="25.55" y="13.25" width="4.004" height="4.004" fill="#FFFFFF"/><rect x="16.45" y="17.8" width="4.004" height="4.004" fill="#FFFFFF"/><rect x="25.55" y="17.8" width="4.004" height="4.004" fill="#FFFFFF"/><rect x="16.45" y="22.35" width="4.004" height="4.004" fill="#FFFFFF"/><rect x="25.55" y="22.35" width="4.004" height="4.004" fill="#FFFFFF"/><rect x="16.45" y="26.9" width="4.004" height="4.004" fill="#FFFFFF"/><rect x="21" y="26.9" width="4.004" height="4.004" fill="#FFFFFF"/><rect x="25.55" y="26.9" width="4.004" height="4.004" fill="#FFFFFF"/><rect x="33.9" y="8.7" width="4.004" height="4.004" fill="#FFFFFF"/><rect x="38.45" y="8.7" width="4.004" height="4.004" fill="#FFFFFF"/><rect x="43" y="8.7" width="4.004" height="4.004" fill="#FFFFFF"/><rect x="33.9" y="13.25" width="4.004" height="4.004" fill="#FFFFFF"/><rect x="33.9" y="17.8" width="4.004" height="4.004" fill="#FFFFFF"/><rect x="38.45" y="17.8" width="4.004" height="4.004" fill="#FFFFFF"/><rect x="43" y="17.8" width="4.004" height="4.004" fill="#FFFFFF"/><rect x="43" y="22.35" width="4.004" height="4.004" fill="#FFFFFF"/><rect x="33.9" y="26.9" width="4.004" height="4.004" fill="#FFFFFF"/><rect x="38.45" y="26.9" width="4.004" height="4.004" fill="#FFFFFF"/><rect x="43" y="26.9" width="4.004" height="4.004" fill="#FFFFFF"/><rect x="16.45" y="34.4" width="4.004" height="4.004" fill="#FFFFFF"/><rect x="21" y="34.4" width="4.004" height="4.004" fill="#FFFFFF"/><rect x="25.55" y="34.4" width="4.004" height="4.004" fill="#FFFFFF"/><rect x="16.45" y="38.95" width="4.004" height="4.004" fill="#FFFFFF"/><rect x="25.55" y="38.95" width="4.004" height="4.004" fill="#FFFFFF"/><rect x="16.45" y="43.5" width="4.004" height="4.004" fill="#FFFFFF"/><rect x="21" y="43.5" width="4.004" height="4.004" fill="#FFFFFF"/><rect x="25.55" y="43.5" width="4.004" height="4.004" fill="#FFFFFF"/><rect x="16.45" y="48.05" width="4.004" height="4.004" fill="#FFFFFF"/><rect x="25.55" y="48.05" width="4.004" height="4.004" fill="#FFFFFF"/><rect x="16.45" y="52.6" width="4.004" height="4.004" fill="#FFFFFF"/><rect x="25.55" y="52.6" width="4.004" height="4.004" fill="#FFFFFF"/><rect x="33.9" y="34.4" width="4.004" height="4.004" fill="#FFFFFF"/><rect x="43" y="34.4" width="4.004" height="4.004" fill="#FFFFFF"/><rect x="33.9" y="38.95" width="4.004" height="4.004" fill="#FFFFFF"/><rect x="38.45" y="38.95" width="4.004" height="4.004" fill="#FFFFFF"/><rect x="43" y="38.95" width="4.004" height="4.004" fill="#FFFFFF"/><rect x="33.9" y="43.5" width="4.004" height="4.004" fill="#FFFFFF"/><rect x="38.45" y="43.5" width="4.004" height="4.004" fill="#FFFFFF"/><rect x="43" y="43.5" width="4.004" height="4.004" fill="#FFFFFF"/><rect x="33.9" y="48.05" width="4.004" height="4.004" fill="#FFFFFF"/><rect x="43" y="48.05" width="4.004" height="4.004" fill="#FFFFFF"/><rect x="33.9" y="52.6" width="4.004" height="4.004" fill="#FFFFFF"/><rect x="43" y="52.6" width="4.004" height="4.004" fill="#FFFFFF"/></svg>
